<?xml version="1.0" standalone="no"?>
<!DOCTYPE svg PUBLIC "-//W3C//DTD SVG 20010904//EN"
 "http://www.w3.org/TR/2001/REC-SVG-20010904/DTD/svg10.dtd">
<svg version="1.0" xmlns="http://www.w3.org/2000/svg"
 width="196.000000pt" height="96.000000pt" viewBox="0 0 196.000000 96.000000"
 preserveAspectRatio="xMidYMid meet">
<metadata>
Created by potrace 1.16, written by Peter Selinger 2001-2019
</metadata>
<g transform="translate(0.000000,96.000000) scale(0.100000,-0.100000)"
fill="#000000" stroke="none">
<path d="M1552 897 c2 -6 35 -105 73 -220 l70 -207 -22 -60 c-12 -33 -18 -62
-14 -65 9 -5 100 0 105 6 2 2 31 87 65 189 33 102 74 225 91 274 16 49 30 91
30 93 0 1 -25 3 -55 3 l-54 0 -25 -82 c-14 -46 -35 -116 -46 -156 -12 -39 -25
-74 -30 -77 -4 -2 -15 23 -25 58 -9 34 -30 106 -47 160 l-31 97 -44 0 c-31 0
-43 -4 -41 -13z"/>
<path d="M1480 526 l0 -319 -91 137 -91 137 36 42 c19 23 57 67 85 97 28 30
50 58 51 63 0 4 -26 7 -59 7 l-59 0 -73 -84 c-41 -47 -77 -85 -81 -85 -4 -1
-8 36 -10 82 l-3 82 -101 3 c-90 2 -102 1 -119 -18 -23 -25 -35 -26 -35 0 0
17 -7 20 -45 20 l-45 0 0 -67 0 -68 -21 43 c-42 85 -167 121 -249 71 -40 -25
-53 -39 -80 -91 -11 -21 -24 -38 -28 -38 -4 1 -16 20 -27 43 -31 65 -80 88
-177 85 l-78 -3 0 30 c0 22 -13 45 -46 83 -25 29 -50 50 -55 46 -5 -3 -9 -134
-9 -304 l0 -300 27 -7 c16 -5 68 -8 118 -8 78 0 96 3 134 25 50 28 76 60 95
114 l13 37 32 -66 c41 -82 87 -116 167 -123 65 -5 134 18 163 54 26 33 31 30
31 -16 0 -33 4 -40 20 -41 72 -4 64 -25 70 185 5 182 6 188 29 207 15 12 39
19 67 19 39 0 44 -3 44 -22 1 -13 1 -125 1 -250 0 -134 4 -230 10 -233 5 -4
28 7 52 22 l42 29 5 117 c4 91 9 120 22 133 15 16 21 10 85 -89 l68 -106 113
0 112 -1 0 168 0 167 -46 139 c-25 77 -49 147 -54 155 -6 10 -10 -105 -10
-303z m-756 69 c28 -26 46 -64 46 -96 0 -18 -8 -19 -104 -19 -58 0 -107 4
-111 10 -10 15 24 83 53 107 36 30 82 30 116 -2z m-386 -32 c44 -28 54 -101
24 -188 -23 -67 -67 -97 -137 -93 l-50 3 -3 131 c-3 145 -1 150 61 164 38 9
73 3 105 -17z m507 -209 c8 -73 1 -91 -22 -56 -19 28 -24 28 -69 -3 -45 -30
-97 -32 -141 -5 -36 22 -63 66 -63 105 l0 25 144 0 144 0 7 -66z"/>
</g>
</svg>
