<svg xmlns="http://www.w3.org/2000/svg" viewBox="0 0 641.47 350.17">
  <defs>
    <style>.cls-1{fill:#0a0a0a;}</style>
    <mask id="mask" >
      <rect x="0" y="0" width="150%" height="100%" fill="#fff" mask="url(#mask)"/>
      <path class="cls-1" d="M350.84,292.6v.07l18.62-14.3,1-66.45,12.6-15.64v-.16l.73-.9,1.71-2.13,1.73,2.14.56.69,44,54.37,25.2-4.76,8.55-1.61,2.43-.46.59-.11-.42-.51-.17-.21L466.62,241l-41.26-50.33.15-.18L409.05,170.4l-.15.18,0-.06-1.06-1.3L466.41,98.3l2.59-3v-.27l-3.82.67-36,6.38-45.49,54.93,0,0v0L373.76,169,371,172.34l.06-4.28.31-20.9.47-31v-2.74l-2.69.5-51.09,9.6a12.49,12.49,0,0,0-3.34.24c-5.06,1-15.18,5.1-25.48,22.15-.45.76-.91,1.54-1.37,2.35l-1.39,2.47v-5.58l.2-13.39V129l-2.7.55-26.08,5.33.17,40.84v8l-1.45-4.11c-.39-1.11-.81-2.23-1.26-3.35C248,158,232.51,139.66,199.65,145.86l-1.59.32A95.77,95.77,0,0,0,180,151.9c-.55.23-1.09.47-1.63.72-2.22,1-4.33,2.09-6.35,3.23-.5.28-1,.56-1.47.85a76,76,0,0,0-7.92,5.38l-.25.2h0l-.82.65a78.65,78.65,0,0,0-18.44,21.45l-.29.49c-.11.17-.21.35-.31.51a82.47,82.47,0,0,0-3.89,7.6c-.38.83-.74,1.66-1.09,2.49s-.69,1.66-1,2.49c-.17.42-.33.84-.48,1.25-.06.16-.12.32-.17.47h0c-.08.24-.17.47-.25.7s-.07.19-.11.29h0c-.12.33-.25.69-.36,1l-.14.39c-.1.29-.19.57-.28.85-.42,1.24-.8,2.47-1.16,3.7-.12.41-.24.82-.35,1.22-.06.19-.11.38-.16.58-.17.62-.34,1.24-.5,1.85l-.09.36c-.08.29-.15.57-.21.85l-.07-.05L132,212c-.29,1.2-.55,2.38-.8,3.55v.08l-1,4.55-.42-4.39-.06-.53c-.11-1.16-.26-2.28-.43-3.37-.06-.4-.13-.8-.2-1.2a1.93,1.93,0,0,0-.08-.47A2.56,2.56,0,0,1,129,210c0-.13,0-.21-.05-.27s0-.09,0-.16c-.28-1.39-.59-2.73-.94-4-.19-.71-.39-1.4-.61-2.08-.35-1.11-.73-2.18-1.14-3.2-.12-.31-.25-.62-.38-.93s-.31-.72-.48-1.07-.19-.4-.28-.6-.11-.26-.17-.4l-.28-.55-.18-.36c-.48-.93-1-1.82-1.52-2.67l-.07-.11-.47-.73-.21-.32c-.33-.49-.66-.94-1-1.42l-.06-.09c-.23-.31-.48-.62-.74-.94l-.47-.6-.11-.12,0-.07-.36-.42-.2-.22-.29-.33-.2-.22-.27-.29-.25-.25-.55-.57-.44-.43a35.39,35.39,0,0,0-3.63-3.06c-.43-.32-.87-.63-1.32-.92l-.2-.14c-.39-.26-.79-.52-1.19-.76a3.79,3.79,0,0,0-.34-.2l-.52-.31-.48-.3a3.75,3.75,0,0,0-.44-.24c-.45-.25-.9-.48-1.35-.7l0,0c-.45-.21-1-.47-1.48-.69l-1.23-.52-.45-.18-1.09-.41-1.2-.42-1-.32c-1-.3-1.94-.57-2.92-.81-.38-.1-.76-.18-1.13-.26l-.11,0A60.27,60.27,0,0,0,89,175.06a84.25,84.25,0,0,0-22.3,1.36v.12l.07.41-.1-.53c-.88.17-1.75.34-2.61.53l-1.15.26q-1.86.42-3.63.9l-1,.28q-1.24.35-2.46.72l-2.22.72-.94.32-1.83.66c-.89.33-1.76.67-2.6,1-.55.23-1.1.46-1.63.7q-1.17.53-2.25,1.05l-.11.06c-.36.17-.71.35-1,.53a33.22,33.22,0,0,0-3,1.67,29.69,29.69,0,0,0-2.87,2l-.44.38a8.51,8.51,0,0,0-1.41,1.53l-1.22,1.76V187l.16-11.18.17-11.39L5.45,141.38l-2.66-2.11v3.38L0,324.94V325c5.06.45,10.14.67,15.21.67h5.56c.86,0,1.73-.05,2.6-.1l1-.06.95-.06,3-.21q3.72-.28,7.42-.74l2.13-.27.66-.09,2.3-.34c.91-.14,1.82-.28,2.73-.44l.91-.16c.61-.1,1.21-.2,1.82-.32l3.31-.66,2.67-.6.66-.15.22-.05,2.15-.53.56-.15c.76-.19,1.51-.39,2.27-.61l.22-.06c.82-.22,1.63-.46,2.45-.71l.57-.17c.55-.17,1-.31,1.57-.49l.69-.22,2.38-.8h.07l2.64-1c.73-.27,1.45-.55,2.18-.84l1.22-.5a100.14,100.14,0,0,0,18.38-9.82c.41-.27.82-.55,1.22-.84.81-.57,1.61-1.15,2.4-1.75q2.07-1.56,4-3.24c.34-.28.68-.57,1-.87,1-.85,1.92-1.73,2.84-2.62l1-1c1-1,1.94-2,2.87-3l.32-.34c.22-.24.44-.48.68-.72L107,291c.41-.47.81-.95,1.21-1.43s.7-.84,1-1.27.6-.76.9-1.15.41-.53.62-.8.51-.71.77-1.05c.45-.62.9-1.23,1.34-1.87s.73-1.07,1.08-1.61l.3-.45c.2-.32.39-.6.59-.93.42-.66.83-1.33,1.23-2s.62-1.06.92-1.59a90.38,90.38,0,0,0,4.14-8.3c.15-.33.3-.67.44-1l.16-.38c.44-1.05.88-2.11,1.26-3.18q.26-.74.51-1.41c.23-.64.46-1.26.68-1.92q.24-.69.45-1.38a3,3,0,0,0,.11-.32q1.32-4.18,2.36-8.61c.24-1,.45-2,.66-3l.8-4,.64,3.71a1.76,1.76,0,0,0,.06.39l0,.1a.29.29,0,0,0,0,.09c.16.88.34,1.78.55,2.69.14.64.29,1.28.46,1.93l.1.4.42,1.54v.05c.19.65.38,1.3.58,2v.07c.2.65.41,1.3.64,1.95v.1c.05.16.11.31.16.47l.48,1.32c.22.6.55,1.46.85,2.19s.56,1.36.86,2l.09.2c.22.51.45,1,.68,1.51l.14.28c.28.6.69,1.42,1.06,2.13.17.34.35.67.53,1,.54,1,1.12,2,1.73,3,.14.25.3.51.46.76l.15.24.1.17c.17.28.34.56.53.83s.42.65.64,1c.67,1,1.36,1.95,2.09,2.9.35.47.73.94,1.1,1.4h0l.21.26.17.21c.13.17.27.33.41.49s.11.13.18.22l.46.52.26.3h0l.26.28.86.93a51.47,51.47,0,0,0,6.69,6l1.1.8.7.51.3.21c.71.48,1.42.93,2.15,1.37l1.11.65.21.12.92.5c.56.3,1.11.58,1.68.85l.9.42c1.12.52,2.27,1,3.45,1.43l1,.36c1.39.48,2.81.9,4.28,1.26l1.35.31c1,.23,2.11.43,3.2.59l1.1.16h.11c.46.07.93.12,1.4.17l1.46.14c.28,0,.59,0,.89,0l.54,0h.2l.37,0c.25,0,.55,0,.83,0H186l1.59-.06c.54,0,1.08-.06,1.62-.1l1-.08,1-.09c1.4-.14,2.82-.32,4.27-.56l0,0,.93-.15,1.24-.22,2.61-.53c3-.58,40-8,53.81-36l-11-10.55-1.28-1.2h0l-.67-.59H241l-.78.91h0l0,0-1,1.06c-5.51,6-20.12,20.21-37.81,23.57a39.64,39.64,0,0,1-6.61.7H193.7c-.76,0-1.51,0-2.25-.05l-1.1-.07a6,6,0,0,1-1-.09,7.3,7.3,0,0,1-.93-.08l-.25,0-1-.13-.89-.14a2.93,2.93,0,0,1-.65-.1l-.2-.05-1.1-.22-1.07-.25-1.06-.28c-.62-.17-1.24-.36-1.85-.57-.26-.08-.51-.17-.76-.27a4.09,4.09,0,0,1-.49-.18c-.31-.11-.6-.22-.9-.35-.64-.26-1.26-.54-1.87-.83l0,0-.18-.09a33.91,33.91,0,0,1-4-2.33l-.7-.5a29.17,29.17,0,0,1-3.1-2.55c-.31-.28-.61-.56-.91-.87q-.87-.82-1.68-1.74c-.24-.26-.49-.54-.73-.84-.74-.9-1.37-1.73-1.93-2.54-.33-.47-.64-1-.95-1.46-.59-1-1.07-1.82-1.48-2.65q-.2-.36-.36-.72l-.13-.27a2.11,2.11,0,0,1-.13-.31l0-.05c0-.07-.07-.17-.12-.27l-.07-.17c-.05-.11-.09-.21-.14-.3l-.18-.43c-.11-.26-.23-.55-.32-.81s-.3-.75-.44-1.16-.27-.78-.41-1.19c-.4-1.28-.73-2.58-1-3.68-.1-.46-.18-.87-.26-1.29s-.13-.75-.19-1.14-.15-1-.2-1.54-.1-.77-.13-1.17l0-.18c0-.38-.06-.78-.06-1.16a36.74,36.74,0,0,1,0-5.35l.05-.75,24.12-5,.69-.12,56-9.63,11.24-2.35h0l7.15-1.49,2.66-.55v2.73l.13,28.58.13,31.34v8.94l2.68-.51,5.21-1,7.62-1.44.08,0v0l12.86-2.43,1.6-102.34a.67.67,0,0,1,0-.2,2.45,2.45,0,0,1,.06-.59v-.06a.72.72,0,0,1,0-.31c.05-.11,0-.16,0-.25v-.26a6,6,0,0,1,.14-.7c.06-.25.06-.29.1-.45l.12-.5q.15-.65.39-1.38l.18-.59c.08-.2.14-.41.22-.62s.15-.42.24-.64c.14-.38.29-.76.46-1.16.32-.75.69-1.53,1.11-2.33.25-.47.54-1,.83-1.45.16-.27.32-.54.5-.81.32-.51.67-1,1.06-1.56s.72-1,1.11-1.46c.24-.29.47-.57.74-.86s.45-.53.7-.79.49-.53.75-.79l-.11,0,0,0,.27-.27h0l.72-.72c6.1-5.79,14.39-9.6,24.78-11.64a90.67,90.67,0,0,1,13.16-1.41v-.08H339v6.62L338.7,178l-1.37,121.59V303l2.7-2.08,10.63-8.16ZM104.07,230.14a71.22,71.22,0,0,1-1.2,12.7C99.06,263.73,90.36,279.36,77,289.22l.18.25-.19-.25a59.83,59.83,0,0,1-23.64,10.3l-1.05.2a67.4,67.4,0,0,1-21.95.67l-.48-.09,1.16-77c0-3.29,3.2-7.24,9-11.19a72.8,72.8,0,0,1,25.49-10.19c9-1.69,18.33-1.47,25.69,2.42.53.28,1.05.59,1.55.9,5.37,3.42,8.86,8.8,10.42,15.92.1.48.19,1,.28,1.46s.17,1.07.24,1.62.14,1.18.19,1.78.1,1.3.13,2,0,1.33,0,2Zm87.47-19.51h0L161,216.42h-.21l-2.55.49.1-.8s.09-.77.31-2c1.53-8.53,9.43-41.55,38.92-47.57l.48-.09a35.89,35.89,0,0,1,6.7-.66H206l1.26.07,1.15.13c.39,0,.78.1,1.16.17.81.14,1.6.31,2.36.51l.17.05.07,0,.67.2c.3.1.69.22,1,.34a25.41,25.41,0,0,1,2.74,1.18l.62.32.61.34,1.17.72.57.38c.38.26.76.54,1.12.81l.5.41c.22.17.43.35.64.53s.46.4.68.61l.13.12.09.09.46.44.38.38.54.57c.31.33.6.66.88,1h0l.63.75c.41.51.8,1,1.18,1.57.19.26.38.53.56.8s.36.54.53.81c.52.82,1,1.65,1.46,2.48.15.28.3.56.44.84l.07.15.07.13c.1.19.19.38.28.56s.11.23.14.3a.93.93,0,0,1,0,.1l.05.1a3.52,3.52,0,0,0,.16.35l.06.13,0,.05c.36.78.7,1.55,1,2.32s.64,1.66.92,2.46l.07.19h0l.25.72q.24.74.45,1.44c.32,1,.59,2,.82,3,.09.39.17.73.25,1.05.12.52.23,1,.33,1.45a2.13,2.13,0,0,0,.07.44c0,.05,0,.1,0,.14.11.55.2,1.05.28,1.5v0a1.17,1.17,0,0,0,0,.26s0,0,0,.06,0,.06,0,.09a2.63,2.63,0,0,1,.06.39c0,.21.06.39.08.56s0,.28.06.39a1.34,1.34,0,0,1,0,.25.32.32,0,0,0,0,.17c0,.08,0,.08,0,.08h0v.2l.09.78Z"/>
      <polygon class="cls-1" points="471.7 242.62 473.54 242.27 489.38 239.28 489.38 239.29 504.65 236.41 506.18 134.65 490.15 91.75 474.62 50.07 471.97 42.95 471.93 50.52 471.71 91.86 471.7 93.18 471.69 94.11 471.68 96.31 471.5 128.14 471.49 128.14 471.49 130.02 470.87 240.04 470.86 241.59 470.85 242.75 470.85 242.78 470.88 242.78 471.7 242.62"/>
      <polygon class="cls-1" points="563.17 180.6 563.18 180.6 613.73 40.32 627.2 2.93 628.26 0 625.2 0.58 592.7 6.7 559.33 108.05 558.28 111.24 556.89 115.45 555.48 111.25 536.51 54.88 524.64 19.54 498.6 24.45 495.92 24.96 496.89 27.51 542.55 147.34 542.55 147.35 528.26 184.45 527.12 187.4 530.23 186.81 556.92 181.78 563.17 180.6"/>
    </mask>
  </defs>
  <rect x="0" y="0" width="150%" height="100%" fill="#fff" mask="url(#mask)"/>
  <title>Asset 14</title>
  <g id="Layer_2" data-name="Layer 2">
    <g id="Layer_1-2" data-name="Layer 1">
      <path class="cls-1" d="M328.65,154.81c-5.13,1-15.58,5.29-26,23.7l-1.34,2.38.31-20.3c-.39.33-.77.68-1.14,1-8.5,8-9.08,16.89-9.09,16.89l-1.6,102.34V283l-2.16.41L274.27,286l.11,25.94,27.36-5.16,1.5-99.15a29.49,29.49,0,0,1,9.59-18.21c5.78-5.49,13.63-9.22,23.4-11.08l.28-24.65-4.66.88A11.44,11.44,0,0,0,328.65,154.81Z"/>
      <path class="cls-1" d="M41.94,181.78h0L37.09,178l-.1,6.79,1-.7A40.48,40.48,0,0,1,41.94,181.78Z"/>
      <path class="cls-1" d="M90,206.63c-.5-.26-1-.51-1.54-.73-14.79,2.81-27.1,8.79-30,12.77l-1.31,1.86.22-13.79a69.37,69.37,0,0,0-15.86,7.56,27.75,27.75,0,0,0-6.06,5.27,6.24,6.24,0,0,0-1.73,3.66L32.59,298a64.78,64.78,0,0,0,19.2-.86q.78-.12,1.56-.3l.69-45.7c0-3.2,3.2-7,8.72-10.76a70.12,70.12,0,0,1,24.67-9.87,50.12,50.12,0,0,1,13.94-.75C101.29,218.08,97.17,210.49,90,206.63Z"/>
      <polygon class="cls-1" points="557.85 103.82 541.17 54 539.17 54.38 556.85 107 557.85 103.82"/>
      <polygon class="cls-1" points="383.87 144.79 374.09 146.63 373.82 164.73 383.74 152.73 383.87 144.79"/>

      <path class="cls-1" d="M235.62,250.77c1.57-1.62,2.69-2.91,3.3-3.63l1.82-2.17,2.07,2,2,1.92,11-2.28L255.69,218l-6.3,1.32a58.75,58.75,0,0,1,2.41,10.8v.75L177.16,245v-.77a63.26,63.26,0,0,1,2.34-10.35c.29-.94.6-1.91.95-2.93h0v0l-22.13,4.61v0a37.12,37.12,0,0,0,0,4.35c0,.39,0,.73.06,1l0,.19c0,.38.06.65.12,1.11s.13,1.1.19,1.46.12.73.19,1.08l.24,1.22c.26,1,.59,2.3,1,3.52q.18.57.39,1.14c.12.37.26.72.41,1.08s.21.55.31.79l.15.37a3,3,0,0,1,.15.33l.05.11c.06.1.11.25.16.35l.12.3a1.58,1.58,0,0,1,.13.26c.1.22.21.43.32.64.4.81.86,1.62,1.41,2.52.28.46.59.92.9,1.37a29.61,29.61,0,0,0,1.83,2.41c.22.27.43.53.66.77a30.85,30.85,0,0,0,5.06,4.57l.7.49a27.74,27.74,0,0,0,3.09,1.85,5.63,5.63,0,0,1-.05-.59,39,39,0,0,1,0-5.07Z"/>
      <path class="cls-1" d="M259.24,288.85l-3.16.59V277.09c-4.79,5.36-19.35,20.08-37.17,23.43a39.24,39.24,0,0,1-6.39.67,41.52,41.52,0,0,1-11.9-1.34l-2.32.47c-17.9,3.37-32,.09-42.79-6.67,9.1,18.39,27.55,35.52,59.82,29.42.85-.14,1.68-.32,2.53-.51,2.92-.54,38.6-7.68,52-34.86l-.8-.7Z"/>
      <path class="cls-1" d="M123.69,269.4a3.47,3.47,0,0,1-.11.63c-3.7,20.23-12.11,35.34-25,44.9A57.9,57.9,0,0,1,74.7,325.08a65.92,65.92,0,0,1-21.25.66l-.46-.1v-1.48c-2,.48-4.09.9-6.1,1.28a171.86,171.86,0,0,1-22.49,2.68l-.32,21.4a165.38,165.38,0,0,0,44.86-2.14c15.27-2.88,32-8.53,46.26-19.29s24.14-25.18,29.7-43.09c-8.3-8.68-13.52-19.47-16.39-29.26A104.42,104.42,0,0,1,123.69,269.4Z"/>
      <polygon class="cls-1" points="432.46 252.75 430.88 253.05 429.88 251.8 386.26 197.8 382.99 201.87 382.99 200.65 373.15 212.87 372.15 278.42 372.15 279.72 371.15 280.51 350.82 296.1 350.46 328.1 381.46 304.36 382.46 240.06 397.24 221.75 441.99 277.06 477.62 270.35 459.11 247.75 432.46 252.75"/>
      <polygon class="cls-1" points="490.23 84.16 508.68 133.71 508.87 134.18 508.87 134.69 507.33 236.45 507.33 238.65 505.17 239.05 489.39 242.05 489.15 270 521.79 263.85 522.89 190.97 523.28 165.44 490.23 76.65 490.23 84.16"/>
      <path class="cls-1" d="M232.88,197.76a5.41,5.41,0,0,1-.09-.54c-.06-.29-.13-.58-.2-.88l-.09-.39c-.07-.29-.16-.65-.25-1-.22-1-.49-1.93-.77-2.84-.15-.49-.3-1-.45-1.43,0-.1-.07-.21-.11-.32l-.14-.39,0-.07,0-.07c-.3-.86-.66-1.79-.9-2.42s-.53-1.28-.91-2.11a.73.73,0,0,0,0-.09l-.07-.16c-.05-.09-.11-.22-.18-.38l0-.05,0,0-.07-.17a1.85,1.85,0,0,1-.11-.24l-.07-.14-.17-.33,0-.06-.08-.13,0-.08,0-.09-.39-.74c-.5-.91-1-1.66-1.39-2.36-.16-.26-.33-.51-.5-.77l-.51-.73,0,0,0,0c-.33-.49-.67-.92-1.08-1.43l-.61-.73c-.26-.32-.52-.61-.8-.91l-.12-.12-.79.09c-1.41.17-2.85.4-4.32.68-.48.07-1,.17-1.45.27h-.15c-27.2,5.72-43.52,20.4-53.26,36.85l-.52.87,29.1-5.51,2.6-.49c.27-.28.54-.55.82-.82a40.15,40.15,0,0,1,20.58-11.1l.48-.08c6.68-1.26,12.14-.56,16.6,1.34l.7.32a.24.24,0,0,1,0-.08Z"/>
      <polygon class="cls-1" points="411.45 169.08 427.23 188.33 468.73 138.15 468.79 128.59 440.79 133.59 411.45 169.08"/>
      <polygon class="cls-1" points="616.79 39.74 565.71 181.51 565.18 182.96 563.67 183.24 555.78 184.73 543.58 216.39 578.47 209.82 641.47 35.1 616.79 39.74"/>
    </g>
  </g>
</svg>